<?xml version="1.0" encoding="UTF-8"?>
<!DOCTYPE svg PUBLIC "-//W3C//DTD SVG 1.1//EN" "http://www.w3.org/Graphics/SVG/1.1/DTD/svg11.dtd">
<!-- Creator: CorelDRAW X7 -->
<svg xmlns="http://www.w3.org/2000/svg" xml:space="preserve" width="8.26772in" height="11.6929in" version="1.1" style="shape-rendering:geometricPrecision; text-rendering:geometricPrecision; image-rendering:optimizeQuality; fill-rule:evenodd; clip-rule:evenodd"
viewBox="0 0 8268 11693"
 xmlns:xlink="http://www.w3.org/1999/xlink">
 <defs>
  <style type="text/css">
   <![CDATA[
    .fil0 {fill:white}
   ]]>
  </style>
 </defs>
 <g id="Layer_x0020_1">
  <metadata id="CorelCorpID_0Corel-Layer"/>
  <path class="fil0" d="M4117 5538l959 0c29,0 52,23 52,51l0 1050c0,29 -23,52 -52,52l-959 0c-28,0 -51,-23 -51,-52l0 -1050c0,-28 23,-51 51,-51zm183 828l0 -46 65 0 0 -410 -70 0 0 91 -55 0 0 -139 313 0 0 139 -54 0 0 -91 -71 0 0 410 65 0 0 46 -193 0zm291 -504l163 0 0 47 -50 0 0 159 137 0 0 -159 -49 0 0 -47 162 0 0 47 -49 0 0 411 49 0 0 46 -162 0 0 -46 49 0 0 -199 -137 0 0 199 50 0 0 46 -163 0 0 -46 50 0 0 -411 -50 0 0 -47z"/>
 </g>
</svg>
