<?xml version="1.0" encoding="UTF-8"?>
<!DOCTYPE svg PUBLIC "-//W3C//DTD SVG 1.1//EN" "http://www.w3.org/Graphics/SVG/1.1/DTD/svg11.dtd">
<!-- Creator: CorelDRAW X7 -->
<svg xmlns="http://www.w3.org/2000/svg" xml:space="preserve" width="8.26772in" height="11.6929in" version="1.1" style="shape-rendering:geometricPrecision; text-rendering:geometricPrecision; image-rendering:optimizeQuality; fill-rule:evenodd; clip-rule:evenodd"
viewBox="0 0 8268 11693"
 xmlns:xlink="http://www.w3.org/1999/xlink">
 <defs>
  <style type="text/css">
   <![CDATA[
    .fil0 {fill:white}
   ]]>
  </style>
 </defs>
 <g id="Layer_x0020_1">
  <metadata id="CorelCorpID_0Corel-Layer"/>
  <g id="_96454312912">
   <path class="fil0" d="M2512 5748c5,6 119,68 125,71 42,24 85,47 127,71l221 123c36,20 24,21 66,0 54,-26 115,-52 169,-78 64,-32 137,-62 202,-94 19,-9 129,-58 135,-63 -9,-7 -50,-26 -63,-33l-452 -228c-19,-10 -13,-9 -33,0 -75,33 -154,73 -232,108l-232 108c-11,4 -24,10 -33,15z"/>
   <path class="fil0" d="M2500 6367l520 266 2 -341 1 -90c-9,0 -1,1 -4,-2l-512 -291c0,38 -1,74 -1,114 0,11 -2,17 -2,26l-1 145c0,21 -2,36 -2,57 0,40 -1,76 -1,116z"/>
   <path class="fil0" d="M3019 6200c3,3 -5,2 4,2l-1 90 -2 341c4,1 240,-102 267,-114l268 -116 3 0 0 -460 -268 129c-45,23 -89,44 -134,65 -23,11 -45,22 -67,32 -12,6 -60,32 -70,31z"/>
   <path class="fil0" d="M3022 6035c4,5 2,20 2,27 0,10 0,20 -1,30 0,10 2,53 -1,58 2,4 7,0 15,-4l487 -235c7,-4 28,-13 33,-17l1 -109c-10,4 -25,11 -35,16 -11,5 -22,10 -33,15 -66,30 -134,64 -201,94 -45,20 -89,41 -134,62l-118 54c-3,2 -5,3 -8,4l-7 5z"/>
   <path class="fil0" d="M2507 5861c7,2 55,30 65,35l441 250c5,3 4,4 9,4 3,-5 1,-48 1,-58 1,-10 1,-20 1,-30 0,-7 2,-22 -2,-27 -16,1 -12,-1 -34,-14 -11,-5 -22,-12 -33,-18 -21,-12 -42,-23 -63,-35 -43,-23 -84,-48 -127,-70 -21,-12 -240,-135 -255,-142 0,7 -1,9 -1,25l0 66c0,7 -2,7 -2,14z"/>
   <path class="fil0" d="M3020 6736c0,-9 0,-18 0,-27 0,-4 0,-8 0,-13l-3 -13 -519 -268 0 56c11,5 22,10 33,16l32 17c141,70 282,144 424,215l33 17z"/>
   <path class="fil0" d="M3017 6683l3 13c0,5 0,9 0,13 0,9 0,18 0,27l134 -59c45,-20 90,-40 134,-60l68 -30c47,-21 106,-49 151,-68 12,-5 41,-20 51,-22l0 -46 -135 58c-45,20 -90,39 -135,59l-201 87c-13,6 -59,28 -70,28z"/>
   <path class="fil0" d="M3017 6646l3 24 538 -232 0 -22 -269 116c-19,8 -259,114 -272,114z"/>
   <path class="fil0" d="M3023 6165l-1 20c2,4 28,-10 32,-12l101 -49c45,-22 89,-44 134,-65 46,-21 90,-43 135,-65 22,-10 44,-21 66,-32 13,-6 59,-29 68,-32l0 -22 -535 257z"/>
   <path class="fil0" d="M2500 6402c9,2 24,11 33,16l162 84c96,51 196,101 293,152 8,4 23,13 32,16l-3 -24 -517 -266 0 22z"/>
   <path class="fil0" d="M2507 5896c9,2 171,96 193,108 21,12 44,24 65,37l128 72c7,4 121,71 129,72l1 -20c-7,-2 -55,-30 -65,-36l-451 -254 0 21z"/>
  </g>
 </g>
</svg>
