<?xml version="1.0" encoding="UTF-8"?>
<!DOCTYPE svg PUBLIC "-//W3C//DTD SVG 1.1//EN" "http://www.w3.org/Graphics/SVG/1.1/DTD/svg11.dtd">
<!-- Creator: CorelDRAW X7 -->
<svg xmlns="http://www.w3.org/2000/svg" xml:space="preserve" width="8.26772in" height="11.6929in" version="1.1" style="shape-rendering:geometricPrecision; text-rendering:geometricPrecision; image-rendering:optimizeQuality; fill-rule:evenodd; clip-rule:evenodd"
viewBox="0 0 8268 11693"
 xmlns:xlink="http://www.w3.org/1999/xlink">
 <defs>
  <style type="text/css">
   <![CDATA[
    .fil0 {fill:white}
   ]]>
  </style>
 </defs>
 <g id="Layer_x0020_1">
  <metadata id="CorelCorpID_0Corel-Layer"/>
  <g id="_96454318320">
   <path class="fil0" d="M4901 4232c5,5 119,67 125,70 42,25 85,47 127,71l222 123c35,21 23,21 65,1 54,-26 116,-52 169,-79 64,-32 137,-62 203,-94 18,-9 128,-58 134,-63 -9,-7 -50,-26 -63,-32l-452 -229c-19,-9 -13,-9 -32,0 -76,33 -155,74 -233,108l-232 108c-11,4 -24,10 -33,16z"/>
   <path class="fil0" d="M4889 4850l520 266 3 -340 0 -90c-9,0 0,0 -4,-3l-512 -290c0,38 -1,74 -1,113 0,11 -1,17 -2,26l-1 145c0,21 -1,37 -1,57 0,41 -2,76 -2,116z"/>
   <path class="fil0" d="M5408 4683c4,3 -5,3 4,3l0 90 -3 340c4,1 240,-102 267,-114l268 -116 3 0 0 -459 -268 129c-45,22 -89,43 -134,65 -23,10 -45,21 -67,32 -12,5 -60,31 -70,30z"/>
   <path class="fil0" d="M5411 4518c4,5 2,20 2,28 0,9 0,19 0,29 0,10 2,53 -2,58 2,4 8,0 15,-4l488 -235c7,-3 27,-13 33,-16l0 -110c-10,4 -25,11 -34,16 -11,5 -23,11 -34,15 -66,30 -134,64 -201,94 -45,20 -89,41 -134,62l-118 55c-3,1 -5,2 -8,3l-7 5z"/>
   <path class="fil0" d="M4896 4344c7,2 55,30 65,36l441 250c5,3 4,3 9,3 4,-5 2,-48 2,-58 0,-10 0,-20 0,-29 0,-8 2,-23 -2,-28 -16,1 -11,-1 -34,-13 -11,-6 -22,-12 -33,-18 -20,-12 -42,-24 -63,-36 -42,-23 -84,-47 -127,-70 -21,-12 -239,-135 -255,-142 0,7 -1,9 -1,25l0 66c0,8 -1,7 -2,14z"/>
   <path class="fil0" d="M6409 4661l0 288 45 0 2 -175c0,9 26,115 29,131 2,7 4,14 5,21 2,8 5,17 6,23l36 0 32 -154c1,-4 1,-7 2,-11 1,-2 0,-2 1,-5 0,0 1,-1 1,-2 1,-3 0,-1 1,-3l0 175 44 0 0 -293 -57 0c-6,0 -4,5 -5,10 -6,37 -20,105 -27,144l-10 51c0,1 -1,1 -1,2 -10,-44 -21,-111 -30,-157l-8 -39c-1,-5 -1,-11 -6,-11l-56 0c-3,0 -4,1 -4,5z"/>
   <path class="fil0" d="M6809 4905l-29 0 0 -202c20,0 52,-5 52,25l0 149c0,16 -11,28 -23,28zm-73 44l73 0c23,0 36,-10 49,-23 12,-13 18,-31 18,-56l0 -136c0,-25 -8,-43 -20,-56 -6,-6 -16,-13 -23,-16 -23,-9 -68,-6 -97,-6l0 293z"/>
   <path class="fil0" d="M6036 4949l44 0 0 -123 52 0 0 123 45 0 0 -288c0,-4 -1,-5 -4,-5l-37 0c-3,0 -4,1 -4,5l0 120 -52 0 0 -125 -44 0 0 293z"/>
   <path class="fil0" d="M6246 4529l0 -154c0,-9 2,-13 6,-18 13,-16 45,-11 45,16l0 158c0,12 -10,25 -21,25 -10,0 -16,1 -24,-9 -4,-4 -6,-9 -6,-18zm-44 -150l0 147c0,25 7,42 20,55 22,22 52,29 82,15 29,-14 40,-42 40,-77l0 -135c0,-35 -12,-59 -39,-74 -42,-22 -103,3 -103,69z"/>
   <path class="fil0" d="M6381 4310l0 289 45 0 0 -90c0,-5 4,-10 6,-14 2,-5 4,-10 8,-13 0,6 18,49 21,58 4,10 8,19 11,29l12 30 53 0c-3,-6 -5,-12 -8,-18l-53 -132c-3,-7 -6,-12 -8,-19 -3,-7 1,-10 5,-18l35 -70c4,-8 16,-29 17,-37l-46 0 -39 76c-2,5 -4,8 -6,13 -2,2 -2,4 -4,7l-4 6 0 -79c0,-27 8,-23 -41,-23 -3,0 -4,1 -4,5z"/>
   <path class="fil0" d="M5409 5219c0,-9 0,-18 0,-26 0,-5 0,-9 1,-14l-4 -13 -518 -268 0 56c10,6 21,11 32,16l32 17c141,71 282,145 424,215l33 17z"/>
   <path class="fil0" d="M6624 4556c-16,0 -27,-8 -27,-24l0 -160c0,-28 50,-41 50,10l0 140c0,17 -4,34 -23,34zm-71 -184l0 162c0,42 42,84 98,63 13,-4 28,-19 35,-32 3,-7 7,-17 7,-27l0 -169c0,-36 -33,-67 -69,-67 -38,0 -71,32 -71,70z"/>
   <path class="fil0" d="M6983 4730c3,4 3,8 3,12l14 97 -31 0 7 -54c2,-13 7,-45 7,-55zm-79 219l47 0c1,-13 10,-54 10,-66l46 0 10 66 46 0c0,-13 -3,-25 -5,-37 -5,-27 -40,-248 -44,-256l-60 0c-1,5 -2,12 -3,18l-10 55c-4,25 -8,50 -12,73l-25 147z"/>
   <path class="fil0" d="M6292 4730l5 26c2,15 11,72 11,83l-31 0c2,-22 15,-93 15,-109zm-78 219l46 0 8 -49c1,-6 2,-11 2,-17l46 0c2,21 8,45 10,66l47 0c-5,-22 -20,-122 -25,-147l-21 -130c-4,-21 5,-16 -64,-16l-43 256c-2,10 -6,26 -6,37z"/>
   <path class="fil0" d="M5406 5166l4 13c-1,5 -1,9 -1,14 0,8 0,17 0,26l134 -59c46,-20 90,-40 135,-60l67 -30c47,-20 106,-49 151,-67 12,-5 41,-20 51,-23l0 -46 -135 59c-45,19 -90,39 -135,58l-201 87c-13,6 -59,28 -70,28z"/>
   <path class="fil0" d="M6036 4351l47 0 0 248 44 0 0 -248 43 0c3,0 4,-1 4,-4l0 -37c0,-4 -1,-5 -4,-5l-134 0 0 46z"/>
   <polygon class="fil0" points="6653,4949 6697,4949 6697,4656 6653,4656 "/>
   <path class="fil0" d="M5406 5130l4 23 537 -232 0 -22 -269 116c-19,8 -259,115 -272,115z"/>
   <path class="fil0" d="M5412 4649l0 20c1,3 27,-11 31,-13l101 -49c46,-21 89,-43 135,-65 45,-21 89,-43 134,-64 23,-11 44,-22 66,-33 13,-6 59,-29 68,-32l0 -21 -535 257z"/>
   <path class="fil0" d="M4889 4885c10,3 24,11 33,17l162 83c96,51 196,101 293,152 8,4 24,13 33,16l-4 -23 -517 -267 0 22z"/>
   <path class="fil0" d="M4896 4379c9,2 171,96 193,108 22,13 44,24 65,37l128 72c7,5 121,72 130,73l0 -20c-7,-3 -55,-31 -65,-37l-451 -254 0 21z"/>
  </g>
 </g>
</svg>
