<?xml version="1.0" encoding="UTF-8"?>
<!DOCTYPE svg PUBLIC "-//W3C//DTD SVG 1.1//EN" "http://www.w3.org/Graphics/SVG/1.1/DTD/svg11.dtd">
<!-- Creator: CorelDRAW X7 -->
<svg xmlns="http://www.w3.org/2000/svg" xml:space="preserve" width="8.26772in" height="11.6929in" version="1.1" style="shape-rendering:geometricPrecision; text-rendering:geometricPrecision; image-rendering:optimizeQuality; fill-rule:evenodd; clip-rule:evenodd"
viewBox="0 0 8268 11693"
 xmlns:xlink="http://www.w3.org/1999/xlink">
 <defs>
  <style type="text/css">
   <![CDATA[
    .fil1 {fill:#094C52}
    .fil2 {fill:#0D686F}
    .fil4 {fill:#0F858F}
    .fil3 {fill:#0F8590}
    .fil0 {fill:#108690}
    .fil5 {fill:#FEFEFE}
   ]]>
  </style>
 </defs>
 <g id="Layer_x0020_1">
  <metadata id="CorelCorpID_0Corel-Layer"/>
  <path class="fil0" d="M2512 4232c5,5 119,67 125,70 42,25 85,47 127,71l221 123c36,21 24,21 66,1 54,-26 115,-52 169,-79 64,-32 137,-62 202,-94 19,-9 129,-58 135,-63 -9,-7 -50,-26 -63,-32l-452 -229c-19,-9 -13,-9 -33,0 -75,33 -154,74 -232,108l-232 108c-11,4 -24,10 -33,16z"/>
  <path class="fil1" d="M2500 4850l520 266 2 -340 1 -90c-9,0 -1,0 -4,-3l-512 -290c0,38 -1,74 -1,113 0,11 -2,17 -2,26l-1 145c0,21 -2,37 -2,57 0,41 -1,76 -1,116z"/>
  <path class="fil2" d="M3019 4683c3,3 -5,3 4,3l-1 90 -2 340c4,1 240,-102 267,-114l268 -116 3 0 0 -459 -268 129c-45,22 -89,43 -134,65 -23,10 -45,21 -67,32 -12,5 -60,31 -70,30z"/>
  <path class="fil2" d="M3022 4518c4,5 2,20 2,28 0,9 0,19 -1,29 0,10 2,53 -1,58 2,4 7,0 15,-4l487 -235c7,-3 28,-13 33,-16l1 -110c-10,4 -25,11 -35,16 -11,5 -22,11 -33,15 -66,30 -134,64 -201,94 -45,20 -89,41 -134,62l-118 55c-3,1 -5,2 -8,3l-7 5z"/>
  <path class="fil1" d="M2507 4344c7,2 55,30 65,36l441 250c5,3 4,3 9,3 3,-5 1,-48 1,-58 1,-10 1,-20 1,-29 0,-8 2,-23 -2,-28 -16,1 -12,-1 -34,-13 -11,-6 -22,-12 -33,-18 -21,-12 -42,-24 -63,-36 -43,-23 -84,-47 -127,-70 -21,-12 -240,-135 -255,-142 0,7 -1,9 -1,25l0 66c0,8 -2,7 -2,14z"/>
  <path class="fil3" d="M4019 4661l0 288 46 0 2 -175c0,9 26,115 29,131 2,7 4,14 5,21 2,8 5,17 5,23l37 0 32 -154c1,-4 1,-7 2,-11 1,-2 0,-2 1,-5 0,0 1,-1 1,-2 1,-3 0,-1 1,-3l0 175 44 0 0 -293 -57 0c-6,0 -4,5 -5,10 -6,37 -20,105 -27,144l-10 51c-1,1 -1,1 -1,2 -10,-44 -21,-111 -30,-157l-8 -39c-1,-5 -1,-11 -6,-11l-56 0c-4,0 -5,1 -5,5z"/>
  <path class="fil3" d="M4420 4905l-29 0 0 -202c20,0 51,-5 51,25l0 149c0,16 -11,28 -22,28zm-73 44l73 0c23,0 35,-10 49,-23 12,-13 18,-31 18,-56l0 -136c0,-25 -8,-43 -21,-56 -5,-6 -15,-13 -22,-16 -23,-9 -69,-6 -97,-6l0 293z"/>
  <path class="fil0" d="M3647 4949l44 0 0 -123 51 0 0 123 46 0 0 -288c0,-4 -1,-5 -4,-5l-37 0c-4,0 -5,1 -5,5l0 120 -51 0 0 -125 -44 0 0 293z"/>
  <path class="fil4" d="M3857 4529l0 -154c0,-9 2,-13 6,-18 13,-16 44,-11 44,16l0 158c0,12 -9,25 -20,25 -10,0 -16,1 -24,-9 -4,-4 -6,-9 -6,-18zm-44 -150l0 147c0,25 7,42 20,55 22,22 51,29 82,15 29,-14 40,-42 40,-77l0 -135c0,-35 -12,-59 -39,-74 -42,-22 -103,3 -103,69z"/>
  <path class="fil4" d="M3991 4310l0 289 46 0 0 -90c0,-5 4,-10 6,-14 2,-5 3,-10 7,-13 1,6 19,49 22,58 4,10 7,19 11,29l12 30 53 0c-3,-6 -5,-12 -8,-18l-54 -132c-2,-7 -5,-12 -7,-19 -3,-7 1,-10 5,-18l35 -70c4,-8 16,-29 17,-37l-46 0 -39 76c-3,5 -4,8 -6,13 -2,2 -2,4 -4,7l-4 6 0 -79c0,-27 8,-23 -41,-23 -4,0 -5,1 -5,5z"/>
  <path class="fil1" d="M3020 5219c0,-9 0,-18 0,-26 0,-5 0,-9 0,-14l-3 -13 -519 -268 0 56c11,6 22,11 33,16l32 17c141,71 282,145 424,215l33 17z"/>
  <path class="fil4" d="M4235 4556c-16,0 -27,-8 -27,-24l0 -160c0,-28 50,-41 50,10l0 140c0,17 -4,34 -23,34zm-71 -184l0 162c0,42 42,84 97,63 14,-4 29,-19 36,-32 3,-7 7,-17 7,-27l0 -169c0,-36 -33,-67 -69,-67 -38,0 -71,32 -71,70z"/>
  <path class="fil4" d="M4594 4730c3,4 3,8 3,12l13 97 -30 0 7 -54c2,-13 7,-45 7,-55zm-79 219l47 0c1,-13 10,-54 10,-66l46 0 10 66 46 0c0,-13 -3,-25 -5,-37 -5,-27 -40,-248 -44,-256l-60 0c-1,5 -2,12 -3,18l-10 55c-4,25 -8,50 -12,73l-25 147z"/>
  <path class="fil4" d="M3903 4730l5 26c2,15 11,72 11,83l-31 0c2,-22 15,-93 15,-109zm-78 219l46 0 8 -49c1,-6 2,-11 2,-17l46 0c1,21 8,45 10,66l47 0c-5,-22 -21,-122 -25,-147l-21 -130c-4,-21 5,-16 -64,-16l-44 256c-1,10 -5,26 -5,37z"/>
  <path class="fil2" d="M3017 5166l3 13c0,5 0,9 0,14 0,8 0,17 0,26l134 -59c45,-20 90,-40 134,-60l68 -30c47,-20 106,-49 151,-67 12,-5 41,-20 51,-23l0 -46 -135 59c-45,19 -90,39 -135,58l-201 87c-13,6 -59,28 -70,28z"/>
  <path class="fil4" d="M3647 4351l47 0 0 248 44 0 0 -248 43 0c3,0 4,-1 4,-4l0 -37c0,-4 -1,-5 -4,-5l-134 0 0 46z"/>
  <path class="fil5" d="M2507 4393l512 290c10,1 58,-25 70,-30 22,-11 44,-22 67,-32 45,-22 89,-43 134,-65l268 -129c4,-2 4,-2 6,-4 0,-7 0,-9 -6,-10 -9,3 -55,26 -68,32 -22,11 -44,22 -66,33 -45,21 -89,43 -135,64 -45,22 -89,44 -134,65l-101 49c-4,2 -30,16 -32,13 -8,-1 -122,-68 -129,-73l-128 -72c-21,-13 -44,-24 -65,-37 -22,-12 -184,-106 -193,-108 -3,2 -5,2 -5,6 -1,5 2,6 5,8z"/>
  <path class="fil5" d="M2498 4898l519 268c11,0 57,-22 70,-28l201 -87c45,-19 90,-39 135,-58l135 -59c5,-2 6,-3 6,-11 -3,-1 -2,-1 -6,-2l-538 232c-9,-3 -24,-12 -32,-16 -97,-51 -197,-101 -293,-152l-162 -83c-9,-6 -24,-14 -33,-17 -9,1 -7,9 -2,13z"/>
  <path class="fil5" d="M2500 4863l517 267c13,0 253,-107 272,-115l269 -116 6 -3c0,-7 1,-8 -6,-10l-3 0 -268 116c-27,12 -263,115 -267,114l-520 -266c-4,0 -6,1 -6,6 0,5 3,6 6,7z"/>
  <path class="fil5" d="M2512 4232c9,-6 22,-12 33,-16l232 -108c78,-34 157,-75 232,-108 20,-9 14,-9 33,0l452 229c13,6 54,25 63,32 -6,5 -116,54 -135,63 -65,32 -138,62 -202,94 -54,27 -115,53 -169,79 -42,20 -30,20 -66,-1l-221 -123c-42,-24 -85,-46 -127,-71 -6,-3 -120,-65 -125,-70zm-2 7c15,7 234,130 255,142 43,23 84,47 127,70 21,12 42,24 63,36 11,6 22,12 33,18 22,12 18,14 34,13l7 -5c3,-1 5,-2 8,-3l118 -55c45,-21 89,-42 134,-62 67,-30 135,-64 201,-94 11,-4 22,-10 33,-15 10,-5 25,-12 35,-16l6 -2 0 -9 -227 -115c-7,-3 -11,-5 -17,-8 -36,-18 -288,-148 -294,-148 -3,0 -76,34 -84,38 -29,15 -73,33 -102,47 -5,3 -10,5 -16,7l-320 149 0 9c3,1 4,2 6,3z"/>
  <path class="fil5" d="M2507 4358l451 254c10,6 58,34 65,37l535 -257c6,-3 6,-3 6,-11l-7 -3c-5,3 -26,13 -33,16l-487 235c-8,4 -13,8 -15,4 -5,0 -4,0 -9,-3l-441 -250c-10,-6 -58,-34 -65,-36l-6 5c2,6 2,6 6,9z"/>
  <polygon class="fil4" points="4264,4949 4308,4949 4308,4656 4264,4656 "/>
  <path class="fil2" d="M3017 5130l3 23 538 -232 0 -22 -269 116c-19,8 -259,115 -272,115z"/>
  <path class="fil2" d="M3023 4649l-1 20c2,3 28,-11 32,-13l101 -49c45,-21 89,-43 134,-65 46,-21 90,-43 135,-64 22,-11 44,-22 66,-33 13,-6 59,-29 68,-32l0 -21 -535 257z"/>
  <path class="fil1" d="M2500 4885c9,3 24,11 33,17l162 83c96,51 196,101 293,152 8,4 23,13 32,16l-3 -23 -517 -267 0 22z"/>
  <path class="fil1" d="M2507 4379c9,2 171,96 193,108 21,13 44,24 65,37l128 72c7,5 121,72 129,73l1 -20c-7,-3 -55,-31 -65,-37l-451 -254 0 21z"/>
 </g>
</svg>
