<svg xmlns="http://www.w3.org/2000/svg" viewBox="0 0 864.13 695.36"><defs><style>.cls-1{fill:none;stroke:#000;stroke-miterlimit:10;stroke-width:85px;}</style></defs><title>icon-search-black</title><g id="Layer_2" data-name="Layer 2"><circle class="cls-1" cx="260.39" cy="260.39" r="217.89"/></g><g id="Layer_3" data-name="Layer 3"><path d="M921.4,660.52,635.82,462a65.51,65.51,0,0,0-90.92,16.34l-2.32,3.33a65.51,65.51,0,0,0,16.34,90.92L844.5,771.12a65.47,65.47,0,0,0,90.92-16.34l2.32-3.33A65.52,65.52,0,0,0,921.4,660.52ZM863.84,733l-.63.9c-3.1,4.46-8.34,6.76-14,6.76a23.81,23.81,0,0,1-13.51-4.38l-92.89-64.59c-9.59-6.67-12.9-18.66-7.35-26.64l.63-.9c5.55-8,17.94-9,27.53-2.38l92.89,64.59C866.08,713,869.39,725,863.84,733Z" transform="translate(-85.23 -87.39)"/></g></svg>