<?xml version="1.0" encoding="utf-8"?>
<!-- Generator: Adobe Illustrator 21.0.0, SVG Export Plug-In . SVG Version: 6.00 Build 0)  -->
<svg version="1.1" id="Layer_1" xmlns="http://www.w3.org/2000/svg" xmlns:xlink="http://www.w3.org/1999/xlink" x="0px" y="0px"
	 viewBox="0 0 1000 1000" style="enable-background:new 0 0 1000 1000;" xml:space="preserve">
<style type="text/css">
	.st0{fill:#FFFFFF;}
</style>
<path class="st0" d="M462,477.9H71.2c-11,0-20-9-20-20V67.1c0-11,9-20,20-20H462c11,0,20,9,20,20v390.8C482,469,473,477.9,462,477.9
	z"/>
<path class="st0" d="M945,477.9H554.2c-11,0-20-9-20-20V67.1c0-11,9-20,20-20H945c11,0,20,9,20,20v390.8
	C965,469,956,477.9,945,477.9z"/>
<path class="st0" d="M462,966.9H71.2c-11,0-20-9-20-20V556.1c0-11,9-20,20-20H462c11,0,20,9,20,20v390.8
	C482,958,473,966.9,462,966.9z"/>
<path class="st0" d="M945,966.9H554.2c-11,0-20-9-20-20V556.1c0-11,9-20,20-20H945c11,0,20,9,20,20v390.8
	C965,958,956,966.9,945,966.9z"/>
</svg>
