<?xml version="1.0" encoding="utf-8"?>
<!-- Generator: Adobe Illustrator 21.0.0, SVG Export Plug-In . SVG Version: 6.00 Build 0)  -->
<svg version="1.1" id="Layer_3" xmlns="http://www.w3.org/2000/svg" xmlns:xlink="http://www.w3.org/1999/xlink" x="0px" y="0px"
	 viewBox="0 0 1000 1000" style="enable-background:new 0 0 1000 1000;" xml:space="preserve">
<style type="text/css">
	.st0{fill:#FFFFFF;}
</style>
<g>
	<polygon class="st0" points="59.2,640 249.5,640 236.8,466.2 46.5,466.2 	"/>
	<polygon class="st0" points="38.3,421.4 233.2,421.4 219.3,223.2 23.5,248.2 	"/>
	<polygon class="st0" points="268.8,217.2 533.5,186.1 540.8,421.4 283.3,421.4 	"/>
	<polygon class="st0" points="287,466.2 540.8,466.2 546.8,640 299.1,640 	"/>
	<polygon class="st0" points="590.3,421.4 583.1,177.8 765.5,156.3 745,421.4 	"/>
	<polygon class="st0" points="591.5,466.2 741.4,466.2 728.1,640 597.6,640 	"/>
	<polygon class="st0" points="793.3,156.3 1000,118.1 1000,156.3 793.3,201.7 	"/>
	<rect x="63.4" y="687.7" class="st0" width="661.1" height="31"/>
	<ellipse class="st0" cx="133.8" cy="842.7" rx="65.6" ry="64.8"/>
	<ellipse class="st0" cx="632.6" cy="816.7" rx="91.8" ry="90.8"/>
</g>
</svg>
